<?xml version="1.0" encoding="UTF-8"?>
<!DOCTYPE svg PUBLIC '-//W3C//DTD SVG 1.1//EN'
'http://www.w3.org/Graphics/SVG/1.1/DTD/svg11.dtd'>
<svg height="25mm" version="1.1" width="50mm" xmlns="http://www.w3.org/2000/svg">
<g id="barcode_group">
<rect height="100%" style="fill:white" width="100%"/>
<text style="fill:black;font-size:10pt;text-anchor:left;" x="1.000mm" y="5.000mm">Andreas, Kurm</text>
<rect height="8.333333333333334mm" style="fill:black;" width="0.3mm" x="2.3mm" y="8.333333333333334mm"/>
<rect height="8.333333333333334mm" style="fill:black;" width="0.3mm" x="2.6mm" y="8.333333333333334mm"/>
<rect height="8.333333333333334mm" style="fill:white;" width="0.3mm" x="2.9mm" y="8.333333333333334mm"/>
<rect height="8.333333333333334mm" style="fill:black;" width="0.3mm" x="3.2mm" y="8.333333333333334mm"/>
<rect height="8.333333333333334mm" style="fill:white;" width="0.3mm" x="3.5mm" y="8.333333333333334mm"/>
<rect height="8.333333333333334mm" style="fill:white;" width="0.3mm" x="3.8mm" y="8.333333333333334mm"/>
<rect height="8.333333333333334mm" style="fill:black;" width="0.3mm" x="4.1mm" y="8.333333333333334mm"/>
<rect height="8.333333333333334mm" style="fill:white;" width="0.3mm" x="4.4mm" y="8.333333333333334mm"/>
<rect height="8.333333333333334mm" style="fill:white;" width="0.3mm" x="4.699999999999999mm" y="8.333333333333334mm"/>
<rect height="8.333333333333334mm" style="fill:white;" width="0.3mm" x="5.0mm" y="8.333333333333334mm"/>
<rect height="8.333333333333334mm" style="fill:white;" width="0.3mm" x="5.3mm" y="8.333333333333334mm"/>
<rect height="8.333333333333334mm" style="fill:black;" width="0.3mm" x="5.6mm" y="8.333333333333334mm"/>
<rect height="8.333333333333334mm" style="fill:white;" width="0.3mm" x="5.9mm" y="8.333333333333334mm"/>
<rect height="8.333333333333334mm" style="fill:white;" width="0.3mm" x="6.2mm" y="8.333333333333334mm"/>
<rect height="8.333333333333334mm" style="fill:white;" width="0.3mm" x="6.5mm" y="8.333333333333334mm"/>
<rect height="8.333333333333334mm" style="fill:black;" width="0.3mm" x="6.8mm" y="8.333333333333334mm"/>
<rect height="8.333333333333334mm" style="fill:black;" width="0.3mm" x="7.1mm" y="8.333333333333334mm"/>
<rect height="8.333333333333334mm" style="fill:white;" width="0.3mm" x="7.3999999999999995mm" y="8.333333333333334mm"/>
<rect height="8.333333333333334mm" style="fill:black;" width="0.3mm" x="7.7mm" y="8.333333333333334mm"/>
<rect height="8.333333333333334mm" style="fill:black;" width="0.3mm" x="8.0mm" y="8.333333333333334mm"/>
<rect height="8.333333333333334mm" style="fill:black;" width="0.3mm" x="8.3mm" y="8.333333333333334mm"/>
<rect height="8.333333333333334mm" style="fill:white;" width="0.3mm" x="8.6mm" y="8.333333333333334mm"/>
<rect height="8.333333333333334mm" style="fill:black;" width="0.3mm" x="8.899999999999999mm" y="8.333333333333334mm"/>
<rect height="8.333333333333334mm" style="fill:white;" width="0.3mm" x="9.2mm" y="8.333333333333334mm"/>
<rect height="8.333333333333334mm" style="fill:white;" width="0.3mm" x="9.5mm" y="8.333333333333334mm"/>
<rect height="8.333333333333334mm" style="fill:white;" width="0.3mm" x="9.8mm" y="8.333333333333334mm"/>
<rect height="8.333333333333334mm" style="fill:white;" width="0.3mm" x="10.1mm" y="8.333333333333334mm"/>
<rect height="8.333333333333334mm" style="fill:black;" width="0.3mm" x="10.4mm" y="8.333333333333334mm"/>
<rect height="8.333333333333334mm" style="fill:white;" width="0.3mm" x="10.7mm" y="8.333333333333334mm"/>
<rect height="8.333333333333334mm" style="fill:black;" width="0.3mm" x="11.0mm" y="8.333333333333334mm"/>
<rect height="8.333333333333334mm" style="fill:black;" width="0.3mm" x="11.299999999999999mm" y="8.333333333333334mm"/>
<rect height="8.333333333333334mm" style="fill:white;" width="0.3mm" x="11.6mm" y="8.333333333333334mm"/>
<rect height="8.333333333333334mm" style="fill:white;" width="0.3mm" x="11.9mm" y="8.333333333333334mm"/>
<rect height="8.333333333333334mm" style="fill:black;" width="0.3mm" x="12.2mm" y="8.333333333333334mm"/>
<rect height="8.333333333333334mm" style="fill:black;" width="0.3mm" x="12.5mm" y="8.333333333333334mm"/>
<rect height="8.333333333333334mm" style="fill:white;" width="0.3mm" x="12.799999999999999mm" y="8.333333333333334mm"/>
<rect height="8.333333333333334mm" style="fill:white;" width="0.3mm" x="13.1mm" y="8.333333333333334mm"/>
<rect height="8.333333333333334mm" style="fill:black;" width="0.3mm" x="13.4mm" y="8.333333333333334mm"/>
<rect height="8.333333333333334mm" style="fill:white;" width="0.3mm" x="13.7mm" y="8.333333333333334mm"/>
<rect height="8.333333333333334mm" style="fill:white;" width="0.3mm" x="14.0mm" y="8.333333333333334mm"/>
<rect height="8.333333333333334mm" style="fill:black;" width="0.3mm" x="14.299999999999999mm" y="8.333333333333334mm"/>
<rect height="8.333333333333334mm" style="fill:black;" width="0.3mm" x="14.6mm" y="8.333333333333334mm"/>
<rect height="8.333333333333334mm" style="fill:black;" width="0.3mm" x="14.9mm" y="8.333333333333334mm"/>
<rect height="8.333333333333334mm" style="fill:white;" width="0.3mm" x="15.2mm" y="8.333333333333334mm"/>
<rect height="8.333333333333334mm" style="fill:black;" width="0.3mm" x="15.5mm" y="8.333333333333334mm"/>
<rect height="8.333333333333334mm" style="fill:white;" width="0.3mm" x="15.799999999999999mm" y="8.333333333333334mm"/>
<rect height="8.333333333333334mm" style="fill:white;" width="0.3mm" x="16.1mm" y="8.333333333333334mm"/>
<rect height="8.333333333333334mm" style="fill:white;" width="0.3mm" x="16.4mm" y="8.333333333333334mm"/>
<rect height="8.333333333333334mm" style="fill:white;" width="0.3mm" x="16.7mm" y="8.333333333333334mm"/>
<rect height="8.333333333333334mm" style="fill:black;" width="0.3mm" x="17.0mm" y="8.333333333333334mm"/>
<rect height="8.333333333333334mm" style="fill:white;" width="0.3mm" x="17.299999999999997mm" y="8.333333333333334mm"/>
<rect height="8.333333333333334mm" style="fill:black;" width="0.3mm" x="17.6mm" y="8.333333333333334mm"/>
<rect height="8.333333333333334mm" style="fill:black;" width="0.3mm" x="17.9mm" y="8.333333333333334mm"/>
<rect height="8.333333333333334mm" style="fill:white;" width="0.3mm" x="18.2mm" y="8.333333333333334mm"/>
<rect height="8.333333333333334mm" style="fill:white;" width="0.3mm" x="18.5mm" y="8.333333333333334mm"/>
<rect height="8.333333333333334mm" style="fill:black;" width="0.3mm" x="18.8mm" y="8.333333333333334mm"/>
<rect height="8.333333333333334mm" style="fill:white;" width="0.3mm" x="19.099999999999998mm" y="8.333333333333334mm"/>
<rect height="8.333333333333334mm" style="fill:white;" width="0.3mm" x="19.4mm" y="8.333333333333334mm"/>
<rect height="8.333333333333334mm" style="fill:black;" width="0.3mm" x="19.7mm" y="8.333333333333334mm"/>
<rect height="8.333333333333334mm" style="fill:white;" width="0.3mm" x="20.0mm" y="8.333333333333334mm"/>
<rect height="8.333333333333334mm" style="fill:black;" width="0.3mm" x="20.3mm" y="8.333333333333334mm"/>
<rect height="8.333333333333334mm" style="fill:black;" width="0.3mm" x="20.599999999999998mm" y="8.333333333333334mm"/>
<rect height="8.333333333333334mm" style="fill:white;" width="0.3mm" x="20.9mm" y="8.333333333333334mm"/>
<rect height="8.333333333333334mm" style="fill:white;" width="0.3mm" x="21.2mm" y="8.333333333333334mm"/>
<rect height="8.333333333333334mm" style="fill:white;" width="0.3mm" x="21.5mm" y="8.333333333333334mm"/>
<rect height="8.333333333333334mm" style="fill:white;" width="0.3mm" x="21.8mm" y="8.333333333333334mm"/>
<rect height="8.333333333333334mm" style="fill:black;" width="0.3mm" x="22.099999999999998mm" y="8.333333333333334mm"/>
<rect height="8.333333333333334mm" style="fill:white;" width="0.3mm" x="22.4mm" y="8.333333333333334mm"/>
<rect height="8.333333333333334mm" style="fill:black;" width="0.3mm" x="22.7mm" y="8.333333333333334mm"/>
<rect height="8.333333333333334mm" style="fill:black;" width="0.3mm" x="23.0mm" y="8.333333333333334mm"/>
<rect height="8.333333333333334mm" style="fill:black;" width="0.3mm" x="23.3mm" y="8.333333333333334mm"/>
<rect height="8.333333333333334mm" style="fill:white;" width="0.3mm" x="23.599999999999998mm" y="8.333333333333334mm"/>
<rect height="8.333333333333334mm" style="fill:black;" width="0.3mm" x="23.9mm" y="8.333333333333334mm"/>
<rect height="8.333333333333334mm" style="fill:black;" width="0.3mm" x="24.2mm" y="8.333333333333334mm"/>
<rect height="8.333333333333334mm" style="fill:black;" width="0.3mm" x="24.5mm" y="8.333333333333334mm"/>
<rect height="8.333333333333334mm" style="fill:black;" width="0.3mm" x="24.8mm" y="8.333333333333334mm"/>
<rect height="8.333333333333334mm" style="fill:white;" width="0.3mm" x="25.099999999999998mm" y="8.333333333333334mm"/>
<rect height="8.333333333333334mm" style="fill:black;" width="0.3mm" x="25.4mm" y="8.333333333333334mm"/>
<rect height="8.333333333333334mm" style="fill:white;" width="0.3mm" x="25.7mm" y="8.333333333333334mm"/>
<rect height="8.333333333333334mm" style="fill:black;" width="0.3mm" x="26.0mm" y="8.333333333333334mm"/>
<rect height="8.333333333333334mm" style="fill:black;" width="0.3mm" x="26.3mm" y="8.333333333333334mm"/>
<rect height="8.333333333333334mm" style="fill:white;" width="0.3mm" x="26.599999999999998mm" y="8.333333333333334mm"/>
<rect height="8.333333333333334mm" style="fill:black;" width="0.3mm" x="26.9mm" y="8.333333333333334mm"/>
<rect height="8.333333333333334mm" style="fill:black;" width="0.3mm" x="27.2mm" y="8.333333333333334mm"/>
<rect height="8.333333333333334mm" style="fill:black;" width="0.3mm" x="27.5mm" y="8.333333333333334mm"/>
<rect height="8.333333333333334mm" style="fill:white;" width="0.3mm" x="27.8mm" y="8.333333333333334mm"/>
<rect height="8.333333333333334mm" style="fill:white;" width="0.3mm" x="28.099999999999998mm" y="8.333333333333334mm"/>
<rect height="8.333333333333334mm" style="fill:white;" width="0.3mm" x="28.4mm" y="8.333333333333334mm"/>
<rect height="8.333333333333334mm" style="fill:black;" width="0.3mm" x="28.7mm" y="8.333333333333334mm"/>
<rect height="8.333333333333334mm" style="fill:white;" width="0.3mm" x="29.0mm" y="8.333333333333334mm"/>
<rect height="8.333333333333334mm" style="fill:white;" width="0.3mm" x="29.3mm" y="8.333333333333334mm"/>
<rect height="8.333333333333334mm" style="fill:white;" width="0.3mm" x="29.599999999999998mm" y="8.333333333333334mm"/>
<rect height="8.333333333333334mm" style="fill:black;" width="0.3mm" x="29.9mm" y="8.333333333333334mm"/>
<rect height="8.333333333333334mm" style="fill:black;" width="0.3mm" x="30.2mm" y="8.333333333333334mm"/>
<rect height="8.333333333333334mm" style="fill:white;" width="0.3mm" x="30.5mm" y="8.333333333333334mm"/>
<rect height="8.333333333333334mm" style="fill:white;" width="0.3mm" x="30.799999999999997mm" y="8.333333333333334mm"/>
<rect height="8.333333333333334mm" style="fill:white;" width="0.3mm" x="31.099999999999998mm" y="8.333333333333334mm"/>
<rect height="8.333333333333334mm" style="fill:black;" width="0.3mm" x="31.4mm" y="8.333333333333334mm"/>
<rect height="8.333333333333334mm" style="fill:white;" width="0.3mm" x="31.7mm" y="8.333333333333334mm"/>
<rect height="8.333333333333334mm" style="fill:black;" width="0.3mm" x="32.0mm" y="8.333333333333334mm"/>
<rect height="8.333333333333334mm" style="fill:white;" width="0.3mm" x="32.3mm" y="8.333333333333334mm"/>
<rect height="8.333333333333334mm" style="fill:black;" width="0.3mm" x="32.599999999999994mm" y="8.333333333333334mm"/>
<rect height="8.333333333333334mm" style="fill:black;" width="0.3mm" x="32.9mm" y="8.333333333333334mm"/>
<rect height="8.333333333333334mm" style="fill:black;" width="0.3mm" x="33.2mm" y="8.333333333333334mm"/>
<rect height="8.333333333333334mm" style="fill:black;" width="0.3mm" x="33.5mm" y="8.333333333333334mm"/>
<rect height="8.333333333333334mm" style="fill:white;" width="0.3mm" x="33.8mm" y="8.333333333333334mm"/>
<rect height="8.333333333333334mm" style="fill:black;" width="0.3mm" x="34.1mm" y="8.333333333333334mm"/>
<rect height="8.333333333333334mm" style="fill:black;" width="0.3mm" x="34.4mm" y="8.333333333333334mm"/>
<rect height="8.333333333333334mm" style="fill:black;" width="0.3mm" x="34.699999999999996mm" y="8.333333333333334mm"/>
<rect height="8.333333333333334mm" style="fill:white;" width="0.3mm" x="35.0mm" y="8.333333333333334mm"/>
<rect height="8.333333333333334mm" style="fill:black;" width="0.3mm" x="35.3mm" y="8.333333333333334mm"/>
<rect height="8.333333333333334mm" style="fill:white;" width="0.3mm" x="35.6mm" y="8.333333333333334mm"/>
<rect height="8.333333333333334mm" style="fill:white;" width="0.3mm" x="35.9mm" y="8.333333333333334mm"/>
<rect height="8.333333333333334mm" style="fill:black;" width="0.3mm" x="36.199999999999996mm" y="8.333333333333334mm"/>
<rect height="8.333333333333334mm" style="fill:white;" width="0.3mm" x="36.5mm" y="8.333333333333334mm"/>
<rect height="8.333333333333334mm" style="fill:black;" width="0.3mm" x="36.8mm" y="8.333333333333334mm"/>
<rect height="8.333333333333334mm" style="fill:black;" width="0.3mm" x="37.1mm" y="8.333333333333334mm"/>
<rect height="8.333333333333334mm" style="fill:white;" width="0.3mm" x="37.4mm" y="8.333333333333334mm"/>
<rect height="8.333333333333334mm" style="fill:white;" width="0.3mm" x="37.699999999999996mm" y="8.333333333333334mm"/>
<rect height="8.333333333333334mm" style="fill:white;" width="0.3mm" x="38.0mm" y="8.333333333333334mm"/>
<rect height="8.333333333333334mm" style="fill:white;" width="0.3mm" x="38.3mm" y="8.333333333333334mm"/>
<rect height="8.333333333333334mm" style="fill:black;" width="0.3mm" x="38.6mm" y="8.333333333333334mm"/>
<rect height="8.333333333333334mm" style="fill:white;" width="0.3mm" x="38.9mm" y="8.333333333333334mm"/>
<rect height="8.333333333333334mm" style="fill:white;" width="0.3mm" x="39.199999999999996mm" y="8.333333333333334mm"/>
<rect height="8.333333333333334mm" style="fill:black;" width="0.3mm" x="39.5mm" y="8.333333333333334mm"/>
<rect height="8.333333333333334mm" style="fill:black;" width="0.3mm" x="39.8mm" y="8.333333333333334mm"/>
<rect height="8.333333333333334mm" style="fill:white;" width="0.3mm" x="40.1mm" y="8.333333333333334mm"/>
<rect height="8.333333333333334mm" style="fill:white;" width="0.3mm" x="40.4mm" y="8.333333333333334mm"/>
<rect height="8.333333333333334mm" style="fill:white;" width="0.3mm" x="40.699999999999996mm" y="8.333333333333334mm"/>
<rect height="8.333333333333334mm" style="fill:white;" width="0.3mm" x="41.0mm" y="8.333333333333334mm"/>
<rect height="8.333333333333334mm" style="fill:black;" width="0.3mm" x="41.3mm" y="8.333333333333334mm"/>
<rect height="8.333333333333334mm" style="fill:white;" width="0.3mm" x="41.6mm" y="8.333333333333334mm"/>
<rect height="8.333333333333334mm" style="fill:black;" width="0.3mm" x="41.9mm" y="8.333333333333334mm"/>
<rect height="8.333333333333334mm" style="fill:black;" width="0.3mm" x="42.199999999999996mm" y="8.333333333333334mm"/>
<rect height="8.333333333333334mm" style="fill:white;" width="0.3mm" x="42.5mm" y="8.333333333333334mm"/>
<rect height="8.333333333333334mm" style="fill:white;" width="0.3mm" x="42.8mm" y="8.333333333333334mm"/>
<rect height="8.333333333333334mm" style="fill:white;" width="0.3mm" x="43.1mm" y="8.333333333333334mm"/>
<rect height="8.333333333333334mm" style="fill:black;" width="0.3mm" x="43.4mm" y="8.333333333333334mm"/>
<rect height="8.333333333333334mm" style="fill:black;" width="0.3mm" x="43.699999999999996mm" y="8.333333333333334mm"/>
<rect height="8.333333333333334mm" style="fill:black;" width="0.3mm" x="44.0mm" y="8.333333333333334mm"/>
<rect height="8.333333333333334mm" style="fill:white;" width="0.3mm" x="44.3mm" y="8.333333333333334mm"/>
<rect height="8.333333333333334mm" style="fill:black;" width="0.3mm" x="44.6mm" y="8.333333333333334mm"/>
<rect height="8.333333333333334mm" style="fill:white;" width="0.3mm" x="44.9mm" y="8.333333333333334mm"/>
<rect height="8.333333333333334mm" style="fill:black;" width="0.3mm" x="45.199999999999996mm" y="8.333333333333334mm"/>
<rect height="8.333333333333334mm" style="fill:black;" width="0.3mm" x="45.5mm" y="8.333333333333334mm"/>
<text style="fill:black;font-size:10pt;text-anchor:middle;" x="25.0mm" y="20mm">Lc4ca4238a</text>
</g></svg>